<?xml version="1.0" standalone="no"?>
<!DOCTYPE svg PUBLIC "-//W3C//DTD SVG 20010904//EN"
 "http://www.w3.org/TR/2001/REC-SVG-20010904/DTD/svg10.dtd">
<svg version="1.0" xmlns="http://www.w3.org/2000/svg"
 width="4052.000000pt" height="4052.000000pt" viewBox="0 0 4052.000000 4052.000000"
 preserveAspectRatio="xMidYMid meet">
<metadata>
Created by potrace 1.11, written by Peter Selinger 2001-2013
</metadata>
<g transform="translate(0.000000,4052.000000) scale(0.100000,-0.100000)"
fill="#000000" stroke="none">
<path d="M35227 40514 c-1 -1 -61 -5 -133 -8 -72 -4 -142 -9 -155 -11 -13 -2
-53 -6 -88 -10 -62 -5 -107 -11 -161 -21 -14 -2 -45 -6 -70 -10 -25 -3 -101
-17 -170 -30 -69 -14 -136 -27 -150 -30 -135 -25 -552 -156 -748 -234 -167
-67 -495 -230 -652 -323 -1036 -615 -1799 -1560 -2175 -2692 l-56 -170 -15220
0 c-13521 0 -15219 -2 -15220 -15 -1 -8 -2 -629 -3 -1380 l-2 -1365 51 -80
c29 -44 87 -134 130 -200 43 -66 124 -190 179 -275 56 -85 133 -203 171 -263
112 -172 313 -480 328 -502 8 -11 103 -157 212 -325 109 -168 230 -354 270
-415 40 -60 111 -170 158 -242 l86 -133 121 78 c67 42 154 98 193 123 40 25
128 83 197 127 69 45 161 105 205 133 44 27 113 71 152 97 527 341 703 452
715 452 8 0 18 -4 24 -9 5 -4 95 -52 199 -106 105 -54 235 -121 290 -150 55
-29 168 -87 250 -130 83 -43 191 -99 240 -125 50 -26 158 -82 240 -125 83 -43
200 -104 260 -135 61 -32 178 -92 260 -135 83 -43 195 -101 250 -130 164 -86
351 -183 495 -258 74 -38 176 -91 225 -117 50 -26 155 -81 235 -123 80 -41
192 -99 250 -129 58 -31 173 -90 255 -133 201 -104 536 -278 740 -385 50 -26
153 -80 230 -120 77 -39 185 -95 240 -124 55 -28 179 -93 275 -143 96 -50 209
-109 250 -130 71 -38 170 -90 505 -263 77 -40 190 -98 250 -130 105 -55 178
-93 510 -265 83 -43 195 -101 250 -130 55 -29 159 -83 230 -120 72 -37 175
-91 230 -120 55 -29 181 -94 280 -145 99 -51 212 -109 250 -130 39 -21 147
-77 240 -125 94 -48 206 -107 250 -130 44 -23 148 -77 230 -120 216 -112 455
-236 740 -385 61 -31 182 -94 270 -140 88 -45 201 -104 250 -130 50 -26 158
-82 240 -125 83 -43 200 -103 260 -135 61 -32 182 -95 270 -141 88 -45 223
-116 300 -156 77 -40 172 -89 210 -109 39 -20 106 -54 150 -78 44 -23 175 -90
290 -150 116 -60 242 -126 280 -146 39 -21 138 -72 220 -115 83 -43 200 -104
260 -135 61 -32 173 -90 250 -130 135 -70 241 -125 478 -249 61 -32 184 -96
272 -141 88 -45 261 -135 385 -200 124 -64 288 -150 365 -190 77 -40 191 -99
253 -131 215 -113 338 -177 507 -264 94 -48 188 -98 210 -110 22 -12 148 -78
280 -145 132 -68 251 -131 265 -140 14 -10 27 -18 30 -17 6 0 48 -21 210 -106
63 -33 171 -89 240 -125 69 -35 166 -86 215 -112 50 -26 176 -91 280 -145 105
-54 222 -114 260 -135 39 -21 131 -69 205 -107 203 -106 382 -199 505 -263 61
-31 187 -97 280 -145 94 -48 202 -104 240 -125 39 -21 135 -71 215 -113 178
-92 392 -203 525 -272 55 -29 159 -83 230 -120 72 -37 175 -91 230 -120 55
-29 172 -90 260 -135 193 -100 375 -194 510 -265 55 -29 161 -84 235 -123 74
-38 187 -97 250 -129 63 -33 187 -97 275 -143 88 -45 196 -102 240 -125 44
-23 157 -82 250 -130 281 -145 320 -166 329 -176 6 -5 15 -9 22 -9 6 0 47 -19
90 -43 44 -24 156 -83 249 -132 94 -48 176 -92 183 -98 6 -5 12 -7 12 -3 0 3
17 -4 38 -17 20 -13 75 -43 122 -67 47 -23 137 -70 200 -103 310 -161 413
-214 505 -262 55 -29 168 -87 250 -130 83 -43 191 -99 240 -125 50 -26 153
-80 230 -120 183 -95 368 -191 480 -250 50 -26 171 -89 270 -140 99 -51 221
-114 270 -140 50 -26 149 -78 220 -115 72 -37 184 -96 250 -130 66 -34 176
-92 245 -127 137 -71 372 -194 575 -300 72 -37 168 -87 215 -110 47 -24 87
-45 90 -48 5 -5 160 -85 295 -152 41 -21 75 -41 75 -45 0 -5 -7 -45 -14 -90
-8 -45 -18 -101 -21 -125 -3 -24 -8 -54 -10 -68 -2 -14 -7 -52 -11 -85 -3 -33
-8 -67 -9 -76 -19 -101 -27 -684 -12 -869 12 -156 15 -184 33 -317 3 -29 16
-106 45 -273 30 -170 123 -509 196 -710 163 -453 429 -951 681 -1275 4 -5 30
-39 57 -75 292 -385 715 -783 1130 -1061 44 -29 82 -56 85 -59 3 -3 16 -11 30
-19 14 -8 63 -38 110 -66 47 -29 119 -71 160 -94 170 -94 551 -271 583 -271 7
0 17 -4 22 -9 14 -13 351 -125 480 -160 108 -28 351 -83 430 -96 22 -4 49 -9
60 -11 20 -3 46 -7 135 -19 25 -3 74 -10 110 -15 260 -36 904 -34 1150 5 19 3
49 7 65 9 43 6 127 18 150 22 11 3 36 7 55 10 31 5 158 31 185 38 6 2 28 6 50
10 85 17 336 89 475 137 80 27 150 51 155 53 6 2 19 7 30 11 331 132 617 275
865 432 138 88 449 310 480 343 3 3 34 30 70 60 117 99 143 124 285 265 172
171 226 231 335 365 47 58 88 107 91 110 7 6 195 271 231 325 72 110 157 255
213 362 12 23 26 48 31 55 21 27 204 428 210 458 1 7 14 40 29 75 41 95 157
470 179 575 3 14 7 34 10 45 25 107 31 137 52 255 8 47 17 96 20 110 2 14 6
43 9 65 4 36 8 61 20 160 2 17 7 71 10 120 4 50 9 106 11 125 6 56 6 488 0
565 -4 39 -9 99 -12 135 -4 36 -6 72 -6 80 0 13 -8 79 -24 190 -3 19 -7 55
-10 80 -3 24 -7 47 -9 50 -2 3 -6 26 -10 50 -4 25 -13 77 -22 115 -8 39 -17
82 -19 96 -4 20 -56 223 -68 264 -1 6 -8 30 -15 55 -43 156 -160 470 -236 635
-67 146 -81 173 -143 290 -236 440 -494 788 -847 1140 -209 209 -247 245 -411
376 -271 215 -553 397 -859 552 -126 64 -299 144 -330 153 -5 1 -42 16 -82 33
-127 53 -441 157 -563 186 -95 23 -334 75 -365 79 -22 4 -51 8 -65 11 -14 3
-38 7 -55 9 -16 2 -46 7 -65 10 -45 7 -90 13 -165 21 -33 3 -78 8 -100 10
-199 21 -716 21 -847 0 -13 -2 -58 -6 -100 -10 -42 -3 -87 -8 -98 -10 -12 -2
-56 -9 -98 -15 -42 -6 -86 -13 -97 -14 -293 -43 -843 -202 -1087 -314 -26 -12
-49 -22 -52 -22 -2 0 -48 -21 -103 -46 -546 -255 -976 -552 -1410 -977 l-92
-90 -73 38 c-40 21 -125 65 -188 98 -149 77 -337 175 -475 247 -60 32 -173 90
-250 130 -77 40 -189 98 -250 130 -60 31 -173 90 -250 130 -77 40 -185 96
-240 125 -97 51 -216 113 -495 257 -74 39 -175 92 -225 118 -49 26 -162 85
-250 130 -153 79 -291 150 -510 265 -55 29 -167 87 -250 130 -82 43 -199 103
-260 135 -60 32 -177 92 -260 135 -82 43 -181 95 -220 115 -38 21 -151 79
-250 130 -99 51 -220 114 -270 140 -49 26 -162 85 -250 130 -88 46 -202 105
-254 132 -51 27 -173 90 -270 141 -97 50 -215 112 -263 137 -47 25 -155 81
-240 124 -84 43 -184 96 -223 116 -81 43 -248 130 -490 255 -93 48 -206 107
-250 130 -44 23 -152 79 -240 125 -88 45 -200 104 -250 130 -49 26 -153 80
-230 120 -210 109 -418 217 -750 390 -60 31 -182 94 -270 140 -88 45 -182 95
-210 110 -27 15 -144 76 -260 135 -115 59 -237 122 -270 140 -33 18 -136 72
-229 119 -92 48 -200 104 -240 125 -76 41 -260 136 -521 271 -88 45 -200 104
-250 130 -88 46 -185 97 -490 255 -82 43 -199 103 -260 135 -60 32 -168 88
-240 125 -71 37 -170 89 -220 115 -49 26 -166 87 -260 135 -93 48 -210 109
-260 135 -49 26 -162 85 -250 130 -88 46 -200 104 -250 130 -49 26 -153 80
-230 120 -77 40 -198 103 -270 140 -71 37 -182 95 -245 127 -63 33 -167 87
-230 120 -63 33 -178 93 -255 133 -77 40 -189 98 -250 130 -177 93 -307 160
-510 265 -104 54 -208 108 -230 120 -22 12 -139 73 -260 135 -121 62 -240 124
-264 137 -24 13 -123 65 -220 115 -97 50 -216 112 -266 138 -49 26 -157 82
-240 125 -82 43 -195 101 -250 130 -55 29 -181 94 -280 145 -99 51 -207 107
-240 125 -33 18 -127 67 -210 110 -82 43 -204 106 -270 140 -144 75 -320 166
-510 265 -77 40 -180 94 -230 120 -49 26 -157 82 -240 125 -82 43 -195 101
-250 130 -55 29 -161 84 -235 122 -327 170 -401 209 -495 258 -55 29 -181 94
-280 145 -99 51 -202 105 -230 120 -71 39 -139 74 -145 75 -3 0 -43 21 -90 47
-47 25 -161 85 -255 133 -160 83 -218 113 -490 255 -60 31 -177 92 -260 135
-192 100 -326 170 -351 183 -10 6 -26 13 -34 16 -8 4 -46 23 -85 44 -69 37
-317 167 -545 285 -63 32 -164 85 -225 117 -148 78 -329 172 -510 265 -82 42
-202 104 -265 137 -218 114 -521 272 -725 378 -77 40 -198 103 -270 140 -71
37 -163 85 -203 105 -40 21 -70 40 -67 44 11 10 24027 7 24040 -4 6 -5 29 -64
49 -130 105 -336 298 -754 488 -1058 55 -89 209 -319 218 -327 3 -3 23 -30 45
-60 41 -56 218 -272 284 -344 139 -153 373 -374 541 -512 451 -369 987 -663
1545 -848 232 -77 418 -127 600 -160 179 -34 307 -52 480 -71 236 -25 739 -25
955 0 19 3 58 7 85 10 28 4 66 8 85 10 19 2 49 6 65 9 50 9 88 15 133 21 318
45 837 206 1202 373 36 16 72 32 80 35 41 18 307 161 321 173 8 8 19 14 22 14
23 0 343 211 492 324 215 163 498 421 660 600 82 90 184 210 235 276 19 25 37
47 40 50 28 24 310 439 310 456 0 4 6 15 14 23 7 9 30 48 51 86 21 39 41 75
45 80 18 24 190 377 190 389 0 3 14 34 30 69 17 36 30 71 30 79 0 8 4 18 9 24
9 9 70 179 115 319 46 145 120 441 141 565 3 19 10 60 15 90 16 94 19 113 36
245 4 28 8 64 9 80 1 17 6 73 11 125 4 52 8 210 9 350 0 329 -14 522 -56 790
-17 103 -20 121 -35 195 -8 39 -17 82 -20 96 -2 14 -20 86 -40 160 -19 74 -36
141 -38 150 -2 8 -25 80 -51 160 -166 506 -424 1001 -745 1427 -228 302 -534
620 -820 851 -36 29 -73 59 -84 68 -10 8 -55 42 -100 75 -44 32 -88 65 -96 71
-35 28 -272 179 -360 229 -125 72 -310 168 -413 214 -45 20 -100 45 -122 54
-211 94 -544 204 -800 263 -103 24 -132 30 -195 42 -14 3 -36 7 -50 10 -14 3
-41 8 -60 11 -19 3 -46 7 -60 10 -14 2 -43 6 -65 9 -22 3 -56 7 -75 10 -19 2
-60 7 -90 10 -30 3 -68 8 -85 10 -88 12 -608 28 -618 19z m348 -2088 c61 -4
121 -8 135 -10 14 -3 47 -7 74 -11 170 -21 427 -86 599 -151 688 -261 1234
-758 1557 -1419 89 -183 174 -412 205 -555 3 -15 34 -161 40 -191 2 -9 6 -40
10 -70 3 -30 8 -61 10 -69 23 -84 23 -547 0 -700 -2 -14 -7 -45 -10 -70 -49
-356 -192 -749 -391 -1067 -164 -263 -359 -489 -581 -674 -48 -41 -90 -76 -93
-79 -8 -9 -141 -103 -200 -142 -82 -54 -307 -178 -323 -178 -7 0 -17 -4 -23
-9 -26 -26 -317 -132 -474 -174 -88 -24 -226 -51 -370 -72 -119 -17 -398 -23
-555 -12 -305 23 -648 105 -895 214 -359 159 -628 341 -895 608 -149 148 -284
312 -372 451 -148 232 -255 456 -331 694 -28 89 -69 243 -78 300 -3 14 -9 48
-14 75 -5 28 -12 73 -15 100 -3 28 -9 82 -14 120 -9 69 -7 521 2 560 2 11 7
47 11 80 4 33 11 83 16 110 5 28 12 61 14 75 6 34 30 130 55 221 129 474 437
971 806 1301 136 122 144 129 225 189 235 174 494 312 758 403 107 37 263 81
321 91 19 3 37 7 40 9 3 2 24 7 46 10 22 4 65 10 95 16 91 15 140 20 255 26
61 3 111 7 112 7 3 3 134 -1 248 -7z"/>
<path d="M5440 30655 c-146 -96 -287 -188 -315 -205 -27 -17 -104 -66 -170
-110 -66 -43 -149 -97 -185 -120 -36 -22 -207 -133 -380 -246 -173 -113 -398
-259 -500 -325 -102 -66 -254 -165 -337 -220 l-153 -99 72 -112 c40 -62 96
-148 125 -191 29 -43 53 -80 53 -82 0 -3 35 -58 78 -122 85 -129 358 -548 382
-588 13 -21 304 -470 516 -795 38 -58 73 -113 79 -122 28 -49 278 -429 284
-432 3 -2 60 32 126 75 66 43 170 110 230 149 61 39 193 125 295 191 102 67
268 175 370 241 102 66 246 160 320 208 74 49 158 103 185 120 28 17 97 61
155 99 171 113 328 215 347 226 10 6 78 50 150 98 l133 87 -50 77 c-27 43 -95
149 -152 235 -57 87 -133 204 -169 260 -37 57 -100 155 -141 218 -41 63 -125
194 -188 290 -62 96 -150 231 -195 300 -45 69 -187 287 -315 485 -347 535
-380 585 -382 584 -2 0 -122 -79 -268 -174z"/>
<path d="M8565 25730 c-176 -115 -356 -232 -400 -260 -44 -28 -141 -91 -215
-140 -74 -50 -151 -99 -170 -110 -19 -11 -116 -74 -215 -139 -156 -104 -235
-155 -340 -221 -23 -14 -123 -79 -487 -317 l-158 -103 28 -43 c15 -24 171
-264 347 -535 176 -270 331 -509 345 -531 30 -48 144 -225 240 -371 101 -155
194 -297 205 -317 6 -10 45 -70 86 -133 42 -63 131 -200 198 -305 68 -104 128
-195 135 -202 8 -8 47 12 156 83 80 52 195 127 255 166 61 39 180 117 265 173
85 55 286 185 445 289 160 103 387 251 505 327 118 77 258 168 310 202 52 33
159 103 238 154 l142 93 -57 88 c-31 48 -95 147 -142 220 -47 72 -112 171
-143 220 -32 48 -85 130 -118 182 -34 52 -97 149 -141 215 -43 66 -88 136 -99
155 -11 19 -84 133 -163 252 -242 371 -552 846 -562 865 -16 28 -166 253 -168
252 -1 0 -146 -94 -322 -209z"/>
<path d="M11933 20962 c-73 -48 -185 -121 -250 -163 -218 -141 -527 -342 -628
-407 -209 -136 -303 -197 -380 -247 -44 -29 -217 -141 -385 -250 -168 -109
-356 -231 -417 -271 l-113 -74 37 -57 c20 -32 63 -97 95 -145 32 -48 58 -90
58 -93 0 -3 5 -11 11 -18 5 -7 33 -48 62 -92 28 -44 92 -143 142 -220 50 -77
150 -230 221 -340 71 -110 132 -201 136 -203 5 -2 8 -7 8 -12 0 -5 54 -91 119
-192 153 -233 254 -390 311 -478 146 -228 363 -558 378 -576 l17 -22 205 133
c113 74 255 166 315 205 61 39 156 102 213 138 56 37 210 137 343 222 132 85
246 160 252 166 7 5 19 13 27 17 8 3 76 47 150 97 74 50 142 94 150 97 8 4 20
11 25 15 6 5 51 35 100 67 91 58 155 100 393 255 l133 86 -19 28 c-23 33 -554
851 -602 928 -19 31 -156 242 -305 470 -148 228 -275 422 -280 432 -6 9 -37
58 -69 107 -33 50 -113 173 -179 275 -65 102 -124 190 -130 197 -9 9 -43 -8
-144 -75z"/>
<path d="M15125 16080 c-66 -43 -171 -111 -233 -152 -62 -40 -152 -99 -200
-130 -48 -31 -123 -80 -167 -108 -92 -59 -363 -234 -385 -250 -36 -25 -335
-219 -362 -235 -9 -5 -81 -52 -160 -103 -79 -51 -195 -127 -258 -168 -63 -42
-184 -120 -267 -175 l-153 -99 50 -77 c27 -43 150 -233 274 -423 229 -352 351
-540 396 -610 54 -85 177 -275 310 -478 77 -118 140 -218 140 -223 0 -5 5 -9
10 -9 6 0 10 -4 10 -9 0 -4 26 -48 59 -97 32 -49 89 -136 126 -194 235 -363
213 -334 238 -317 12 9 156 103 320 209 163 106 349 227 412 268 64 41 281
182 483 313 397 257 679 441 920 598 l152 99 -57 87 c-31 49 -81 126 -112 173
-31 47 -58 90 -61 95 -3 6 -30 48 -61 95 -31 47 -132 202 -224 345 -93 143
-218 337 -279 431 -61 94 -115 178 -121 186 -5 9 -61 94 -123 190 -62 95 -209
320 -326 500 -116 181 -216 332 -221 337 -6 5 -58 -22 -130 -69z"/>
<path d="M18120 11070 c-168 -109 -377 -245 -464 -302 -88 -57 -222 -143 -298
-193 -76 -49 -186 -121 -245 -160 -60 -38 -191 -124 -293 -190 -515 -336 -682
-444 -698 -452 -2 0 45 -76 105 -167 59 -91 112 -175 118 -186 5 -11 13 -20
17 -20 5 0 8 -4 8 -9 0 -6 57 -97 126 -203 166 -254 199 -303 409 -628 98
-151 206 -318 241 -371 l62 -96 -30 -34 c-52 -61 -203 -262 -279 -374 -200
-291 -399 -672 -524 -1000 -27 -69 -102 -286 -110 -315 -3 -8 -18 -64 -35
-125 -17 -60 -38 -139 -46 -175 -8 -36 -17 -72 -19 -80 -16 -69 -55 -276 -60
-319 -4 -30 -8 -62 -10 -71 -2 -9 -6 -41 -10 -71 -3 -30 -8 -65 -10 -79 -2
-14 -7 -72 -11 -130 -4 -58 -8 -118 -10 -135 -4 -40 -4 -466 1 -535 8 -138 19
-238 51 -480 2 -19 7 -46 10 -60 3 -14 8 -39 10 -57 2 -18 11 -65 20 -105 9
-40 22 -101 29 -136 50 -226 176 -615 270 -827 32 -74 149 -321 155 -330 5 -5
24 -41 44 -80 21 -38 50 -92 67 -120 16 -27 37 -65 46 -82 9 -18 20 -33 25
-33 4 0 8 -5 8 -10 0 -6 8 -23 19 -38 10 -15 47 -70 81 -122 73 -109 192 -270
259 -350 25 -30 55 -66 66 -79 120 -147 364 -395 515 -521 35 -30 76 -65 90
-78 85 -78 451 -340 582 -417 467 -274 838 -431 1317 -561 30 -8 62 -16 70
-18 9 -1 27 -6 41 -9 71 -17 158 -36 185 -41 17 -2 70 -12 118 -20 49 -9 105
-19 125 -21 21 -3 46 -7 57 -9 11 -2 58 -7 105 -11 47 -4 92 -9 101 -10 118
-23 811 -23 882 0 6 2 41 6 77 9 36 4 84 8 108 11 43 4 267 40 312 50 14 3 41
8 60 11 19 3 38 8 41 10 3 2 21 6 40 9 19 3 52 11 74 16 22 6 48 13 59 15 125
24 524 158 711 239 138 60 199 89 330 156 223 114 420 234 620 378 82 59 254
191 281 216 6 5 37 33 69 60 365 314 699 708 970 1145 48 77 58 95 128 223
166 305 301 627 393 942 37 126 100 372 109 427 3 18 12 69 20 113 15 82 17
94 34 225 31 232 41 386 41 620 1 197 -10 409 -25 530 -2 19 -7 58 -10 85 -16
145 -33 240 -90 517 -2 9 -20 78 -39 153 -268 1015 -865 1930 -1685 2578 -75
59 -140 111 -146 115 -349 254 -693 446 -1091 608 -75 31 -144 57 -153 59 -9
2 -70 23 -136 45 -66 23 -154 51 -195 62 -171 45 -266 69 -295 74 -16 3 -46 9
-65 14 -33 8 -238 43 -325 55 -213 29 -392 40 -655 39 -209 0 -421 -8 -480
-18 -14 -3 -52 -7 -85 -10 -33 -3 -71 -8 -85 -10 -24 -4 -50 -8 -145 -21 -22
-3 -51 -8 -65 -11 -14 -3 -36 -8 -50 -10 -69 -12 -143 -28 -215 -46 -44 -11
-89 -22 -101 -24 -11 -2 -68 -17 -125 -34 -57 -16 -107 -30 -110 -30 -7 0 -79
109 -439 665 -139 215 -282 435 -318 490 -36 55 -119 183 -185 285 -65 102
-124 190 -130 197 -9 8 -87 -38 -317 -187z m3079 -3324 c47 -4 117 -11 155
-17 39 -6 83 -13 99 -15 15 -2 85 -17 155 -33 259 -61 493 -151 727 -279 149
-82 371 -237 484 -336 74 -66 251 -244 308 -312 234 -278 409 -590 523 -934
58 -174 102 -355 116 -470 2 -19 6 -44 8 -55 26 -115 27 -660 2 -735 -2 -8 -7
-35 -10 -60 -8 -72 -35 -209 -61 -305 -153 -582 -515 -1131 -990 -1501 -314
-246 -669 -421 -1055 -519 -70 -18 -77 -20 -160 -35 -30 -6 -66 -12 -80 -15
-14 -3 -43 -8 -65 -10 -22 -3 -56 -7 -75 -10 -121 -16 -435 -22 -520 -11 -19
2 -69 8 -110 11 -41 4 -84 9 -95 11 -11 2 -60 11 -110 20 -226 39 -485 125
-715 237 -212 103 -383 213 -569 365 -110 91 -270 246 -336 326 -22 27 -44 54
-50 60 -53 59 -164 214 -235 331 -154 252 -312 659 -355 915 -3 19 -8 42 -10
50 -2 8 -7 35 -10 60 -2 25 -7 54 -9 66 -13 63 -21 223 -20 399 0 176 4 249
19 345 2 14 7 45 10 70 32 231 127 538 236 766 307 645 806 1123 1477 1413 50
22 92 38 92 36 0 -3 20 4 44 15 99 42 402 117 551 136 22 3 45 7 52 9 7 2 63
7 125 11 62 3 114 7 115 8 5 4 265 -2 342 -8z"/>
</g>
</svg>
